<?xml version="1.0" encoding="utf-8" standalone="no"?>
<!DOCTYPE svg PUBLIC "-//W3C//DTD SVG 1.1//EN"
  "http://www.w3.org/Graphics/SVG/1.1/DTD/svg11.dtd">
<svg xmlns:xlink="http://www.w3.org/1999/xlink" width="1080pt" height="324pt" viewBox="0 0 1080 324" xmlns="http://www.w3.org/2000/svg" version="1.1">
 <metadata>
  <rdf:RDF xmlns:dc="http://purl.org/dc/elements/1.1/" xmlns:cc="http://creativecommons.org/ns#" xmlns:rdf="http://www.w3.org/1999/02/22-rdf-syntax-ns#">
   <cc:Work>
    <dc:type rdf:resource="http://purl.org/dc/dcmitype/StillImage"/>
    <dc:date>2026-03-04T14:28:53.743887</dc:date>
    <dc:format>image/svg+xml</dc:format>
    <dc:creator>
     <cc:Agent>
      <dc:title>Matplotlib v3.10.8, https://matplotlib.org/</dc:title>
     </cc:Agent>
    </dc:creator>
   </cc:Work>
  </rdf:RDF>
 </metadata>
 <defs>
  <style type="text/css">*{stroke-linejoin: round; stroke-linecap: butt}</style>
 </defs>
 <g id="figure_1">
  <g id="patch_1">
   <path d="M 0 324 
L 1080 324 
L 1080 0 
L 0 0 
z
" style="fill: #ffffff"/>
  </g>
  <g id="axes_1">
   <g id="patch_2">
    <path d="M 42.765865 290.64351 
L 355.991017 290.64351 
L 355.991017 18.118365 
L 42.765865 18.118365 
z
" style="fill: #ffffff"/>
   </g>
   <g id="FillBetweenPolyCollection_1">
    <path d="M 57.003372 253.631647 
L 57.003372 277.00027 
L 151.920085 278.256003 
L 246.836797 277.592553 
L 341.75351 278.199673 
L 341.75351 275.436144 
L 341.75351 275.436144 
L 246.836797 275.171934 
L 151.920085 277.429267 
L 57.003372 253.631647 
z
" clip-path="url(#pc68682844d)" style="fill: #1f77b4; fill-opacity: 0.15"/>
   </g>
   <g id="FillBetweenPolyCollection_2">
    <path d="M 57.003372 196.290682 
L 57.003372 214.062571 
L 151.920085 203.812487 
L 246.836797 201.782402 
L 341.75351 191.543269 
L 341.75351 188.778409 
L 341.75351 188.778409 
L 246.836797 185.426744 
L 151.920085 193.74254 
L 57.003372 196.290682 
z
" clip-path="url(#pc68682844d)" style="fill: #ff7f0e; fill-opacity: 0.15"/>
   </g>
   <g id="FillBetweenPolyCollection_3">
    <path d="M 57.003372 143.038709 
L 57.003372 149.768276 
L 151.920085 134.371569 
L 246.836797 143.060339 
L 341.75351 175.275881 
L 341.75351 123.784382 
L 341.75351 123.784382 
L 246.836797 133.578493 
L 151.920085 121.610704 
L 57.003372 143.038709 
z
" clip-path="url(#pc68682844d)" style="fill: #2ca02c; fill-opacity: 0.15"/>
   </g>
   <g id="FillBetweenPolyCollection_4">
    <path d="M 57.003372 31.49232 
L 57.003372 56.013054 
L 151.920085 72.433763 
L 246.836797 41.636057 
L 341.75351 96.726818 
L 341.75351 41.017171 
L 341.75351 41.017171 
L 246.836797 30.505872 
L 151.920085 70.24095 
L 57.003372 31.49232 
z
" clip-path="url(#pc68682844d)" style="fill: #d62728; fill-opacity: 0.15"/>
   </g>
   <g id="matplotlib.axis_1">
    <g id="xtick_1">
     <g id="line2d_1">
      <path d="M 57.003372 290.64351 
L 57.003372 18.118365 
" clip-path="url(#pc68682844d)" style="fill: none; stroke-dasharray: 2.96,1.28; stroke-dashoffset: 0; stroke: #b0b0b0; stroke-opacity: 0.25; stroke-width: 0.8"/>
     </g>
     <g id="line2d_2">
      <defs>
       <path id="mc4e8c62676" d="M 0 0 
L 0 3.5 
" style="stroke: #000000; stroke-width: 0.8"/>
      </defs>
      <g>
       <use xlink:href="#mc4e8c62676" x="57.003372" y="290.64351" style="stroke: #000000; stroke-width: 0.8"/>
      </g>
     </g>
     <g id="text_1">
      <!-- 500 -->
      <g transform="translate(47.459622 305.241947) scale(0.1 -0.1)">
       <defs>
        <path id="DejaVuSans-35" d="M 691 4666 
L 3169 4666 
L 3169 4134 
L 1269 4134 
L 1269 2991 
Q 1406 3038 1543 3061 
Q 1681 3084 1819 3084 
Q 2600 3084 3056 2656 
Q 3513 2228 3513 1497 
Q 3513 744 3044 326 
Q 2575 -91 1722 -91 
Q 1428 -91 1123 -41 
Q 819 9 494 109 
L 494 744 
Q 775 591 1075 516 
Q 1375 441 1709 441 
Q 2250 441 2565 725 
Q 2881 1009 2881 1497 
Q 2881 1984 2565 2268 
Q 2250 2553 1709 2553 
Q 1456 2553 1204 2497 
Q 953 2441 691 2322 
L 691 4666 
z
" transform="scale(0.015625)"/>
        <path id="DejaVuSans-30" d="M 2034 4250 
Q 1547 4250 1301 3770 
Q 1056 3291 1056 2328 
Q 1056 1369 1301 889 
Q 1547 409 2034 409 
Q 2525 409 2770 889 
Q 3016 1369 3016 2328 
Q 3016 3291 2770 3770 
Q 2525 4250 2034 4250 
z
M 2034 4750 
Q 2819 4750 3233 4129 
Q 3647 3509 3647 2328 
Q 3647 1150 3233 529 
Q 2819 -91 2034 -91 
Q 1250 -91 836 529 
Q 422 1150 422 2328 
Q 422 3509 836 4129 
Q 1250 4750 2034 4750 
z
" transform="scale(0.015625)"/>
       </defs>
       <use xlink:href="#DejaVuSans-35"/>
       <use xlink:href="#DejaVuSans-30" transform="translate(63.623047 0)"/>
       <use xlink:href="#DejaVuSans-30" transform="translate(127.246094 0)"/>
      </g>
     </g>
    </g>
    <g id="xtick_2">
     <g id="line2d_3">
      <path d="M 151.920085 290.64351 
L 151.920085 18.118365 
" clip-path="url(#pc68682844d)" style="fill: none; stroke-dasharray: 2.96,1.28; stroke-dashoffset: 0; stroke: #b0b0b0; stroke-opacity: 0.25; stroke-width: 0.8"/>
     </g>
     <g id="line2d_4">
      <g>
       <use xlink:href="#mc4e8c62676" x="151.920085" y="290.64351" style="stroke: #000000; stroke-width: 0.8"/>
      </g>
     </g>
     <g id="text_2">
      <!-- 1,000 -->
      <g transform="translate(137.606022 305.241947) scale(0.1 -0.1)">
       <defs>
        <path id="DejaVuSans-31" d="M 794 531 
L 1825 531 
L 1825 4091 
L 703 3866 
L 703 4441 
L 1819 4666 
L 2450 4666 
L 2450 531 
L 3481 531 
L 3481 0 
L 794 0 
L 794 531 
z
" transform="scale(0.015625)"/>
        <path id="DejaVuSans-2c" d="M 750 794 
L 1409 794 
L 1409 256 
L 897 -744 
L 494 -744 
L 750 256 
L 750 794 
z
" transform="scale(0.015625)"/>
       </defs>
       <use xlink:href="#DejaVuSans-31"/>
       <use xlink:href="#DejaVuSans-2c" transform="translate(63.623047 0)"/>
       <use xlink:href="#DejaVuSans-30" transform="translate(95.410156 0)"/>
       <use xlink:href="#DejaVuSans-30" transform="translate(159.033203 0)"/>
       <use xlink:href="#DejaVuSans-30" transform="translate(222.65625 0)"/>
      </g>
     </g>
    </g>
    <g id="xtick_3">
     <g id="line2d_5">
      <path d="M 246.836797 290.64351 
L 246.836797 18.118365 
" clip-path="url(#pc68682844d)" style="fill: none; stroke-dasharray: 2.96,1.28; stroke-dashoffset: 0; stroke: #b0b0b0; stroke-opacity: 0.25; stroke-width: 0.8"/>
     </g>
     <g id="line2d_6">
      <g>
       <use xlink:href="#mc4e8c62676" x="246.836797" y="290.64351" style="stroke: #000000; stroke-width: 0.8"/>
      </g>
     </g>
     <g id="text_3">
      <!-- 2,000 -->
      <g transform="translate(232.522735 305.241947) scale(0.1 -0.1)">
       <defs>
        <path id="DejaVuSans-32" d="M 1228 531 
L 3431 531 
L 3431 0 
L 469 0 
L 469 531 
Q 828 903 1448 1529 
Q 2069 2156 2228 2338 
Q 2531 2678 2651 2914 
Q 2772 3150 2772 3378 
Q 2772 3750 2511 3984 
Q 2250 4219 1831 4219 
Q 1534 4219 1204 4116 
Q 875 4013 500 3803 
L 500 4441 
Q 881 4594 1212 4672 
Q 1544 4750 1819 4750 
Q 2544 4750 2975 4387 
Q 3406 4025 3406 3419 
Q 3406 3131 3298 2873 
Q 3191 2616 2906 2266 
Q 2828 2175 2409 1742 
Q 1991 1309 1228 531 
z
" transform="scale(0.015625)"/>
       </defs>
       <use xlink:href="#DejaVuSans-32"/>
       <use xlink:href="#DejaVuSans-2c" transform="translate(63.623047 0)"/>
       <use xlink:href="#DejaVuSans-30" transform="translate(95.410156 0)"/>
       <use xlink:href="#DejaVuSans-30" transform="translate(159.033203 0)"/>
       <use xlink:href="#DejaVuSans-30" transform="translate(222.65625 0)"/>
      </g>
     </g>
    </g>
    <g id="xtick_4">
     <g id="line2d_7">
      <path d="M 341.75351 290.64351 
L 341.75351 18.118365 
" clip-path="url(#pc68682844d)" style="fill: none; stroke-dasharray: 2.96,1.28; stroke-dashoffset: 0; stroke: #b0b0b0; stroke-opacity: 0.25; stroke-width: 0.8"/>
     </g>
     <g id="line2d_8">
      <g>
       <use xlink:href="#mc4e8c62676" x="341.75351" y="290.64351" style="stroke: #000000; stroke-width: 0.8"/>
      </g>
     </g>
     <g id="text_4">
      <!-- 4,000 -->
      <g transform="translate(327.439448 305.241947) scale(0.1 -0.1)">
       <defs>
        <path id="DejaVuSans-34" d="M 2419 4116 
L 825 1625 
L 2419 1625 
L 2419 4116 
z
M 2253 4666 
L 3047 4666 
L 3047 1625 
L 3713 1625 
L 3713 1100 
L 3047 1100 
L 3047 0 
L 2419 0 
L 2419 1100 
L 313 1100 
L 313 1709 
L 2253 4666 
z
" transform="scale(0.015625)"/>
       </defs>
       <use xlink:href="#DejaVuSans-34"/>
       <use xlink:href="#DejaVuSans-2c" transform="translate(63.623047 0)"/>
       <use xlink:href="#DejaVuSans-30" transform="translate(95.410156 0)"/>
       <use xlink:href="#DejaVuSans-30" transform="translate(159.033203 0)"/>
       <use xlink:href="#DejaVuSans-30" transform="translate(222.65625 0)"/>
      </g>
     </g>
    </g>
    <g id="text_5">
     <!-- Number of genes -->
     <g transform="translate(156.194066 318.920073) scale(0.1 -0.1)">
      <defs>
       <path id="DejaVuSans-4e" d="M 628 4666 
L 1478 4666 
L 3547 763 
L 3547 4666 
L 4159 4666 
L 4159 0 
L 3309 0 
L 1241 3903 
L 1241 0 
L 628 0 
L 628 4666 
z
" transform="scale(0.015625)"/>
       <path id="DejaVuSans-75" d="M 544 1381 
L 544 3500 
L 1119 3500 
L 1119 1403 
Q 1119 906 1312 657 
Q 1506 409 1894 409 
Q 2359 409 2629 706 
Q 2900 1003 2900 1516 
L 2900 3500 
L 3475 3500 
L 3475 0 
L 2900 0 
L 2900 538 
Q 2691 219 2414 64 
Q 2138 -91 1772 -91 
Q 1169 -91 856 284 
Q 544 659 544 1381 
z
M 1991 3584 
L 1991 3584 
z
" transform="scale(0.015625)"/>
       <path id="DejaVuSans-6d" d="M 3328 2828 
Q 3544 3216 3844 3400 
Q 4144 3584 4550 3584 
Q 5097 3584 5394 3201 
Q 5691 2819 5691 2113 
L 5691 0 
L 5113 0 
L 5113 2094 
Q 5113 2597 4934 2840 
Q 4756 3084 4391 3084 
Q 3944 3084 3684 2787 
Q 3425 2491 3425 1978 
L 3425 0 
L 2847 0 
L 2847 2094 
Q 2847 2600 2669 2842 
Q 2491 3084 2119 3084 
Q 1678 3084 1418 2786 
Q 1159 2488 1159 1978 
L 1159 0 
L 581 0 
L 581 3500 
L 1159 3500 
L 1159 2956 
Q 1356 3278 1631 3431 
Q 1906 3584 2284 3584 
Q 2666 3584 2933 3390 
Q 3200 3197 3328 2828 
z
" transform="scale(0.015625)"/>
       <path id="DejaVuSans-62" d="M 3116 1747 
Q 3116 2381 2855 2742 
Q 2594 3103 2138 3103 
Q 1681 3103 1420 2742 
Q 1159 2381 1159 1747 
Q 1159 1113 1420 752 
Q 1681 391 2138 391 
Q 2594 391 2855 752 
Q 3116 1113 3116 1747 
z
M 1159 2969 
Q 1341 3281 1617 3432 
Q 1894 3584 2278 3584 
Q 2916 3584 3314 3078 
Q 3713 2572 3713 1747 
Q 3713 922 3314 415 
Q 2916 -91 2278 -91 
Q 1894 -91 1617 61 
Q 1341 213 1159 525 
L 1159 0 
L 581 0 
L 581 4863 
L 1159 4863 
L 1159 2969 
z
" transform="scale(0.015625)"/>
       <path id="DejaVuSans-65" d="M 3597 1894 
L 3597 1613 
L 953 1613 
Q 991 1019 1311 708 
Q 1631 397 2203 397 
Q 2534 397 2845 478 
Q 3156 559 3463 722 
L 3463 178 
Q 3153 47 2828 -22 
Q 2503 -91 2169 -91 
Q 1331 -91 842 396 
Q 353 884 353 1716 
Q 353 2575 817 3079 
Q 1281 3584 2069 3584 
Q 2775 3584 3186 3129 
Q 3597 2675 3597 1894 
z
M 3022 2063 
Q 3016 2534 2758 2815 
Q 2500 3097 2075 3097 
Q 1594 3097 1305 2825 
Q 1016 2553 972 2059 
L 3022 2063 
z
" transform="scale(0.015625)"/>
       <path id="DejaVuSans-72" d="M 2631 2963 
Q 2534 3019 2420 3045 
Q 2306 3072 2169 3072 
Q 1681 3072 1420 2755 
Q 1159 2438 1159 1844 
L 1159 0 
L 581 0 
L 581 3500 
L 1159 3500 
L 1159 2956 
Q 1341 3275 1631 3429 
Q 1922 3584 2338 3584 
Q 2397 3584 2469 3576 
Q 2541 3569 2628 3553 
L 2631 2963 
z
" transform="scale(0.015625)"/>
       <path id="DejaVuSans-20" transform="scale(0.015625)"/>
       <path id="DejaVuSans-6f" d="M 1959 3097 
Q 1497 3097 1228 2736 
Q 959 2375 959 1747 
Q 959 1119 1226 758 
Q 1494 397 1959 397 
Q 2419 397 2687 759 
Q 2956 1122 2956 1747 
Q 2956 2369 2687 2733 
Q 2419 3097 1959 3097 
z
M 1959 3584 
Q 2709 3584 3137 3096 
Q 3566 2609 3566 1747 
Q 3566 888 3137 398 
Q 2709 -91 1959 -91 
Q 1206 -91 779 398 
Q 353 888 353 1747 
Q 353 2609 779 3096 
Q 1206 3584 1959 3584 
z
" transform="scale(0.015625)"/>
       <path id="DejaVuSans-66" d="M 2375 4863 
L 2375 4384 
L 1825 4384 
Q 1516 4384 1395 4259 
Q 1275 4134 1275 3809 
L 1275 3500 
L 2222 3500 
L 2222 3053 
L 1275 3053 
L 1275 0 
L 697 0 
L 697 3053 
L 147 3053 
L 147 3500 
L 697 3500 
L 697 3744 
Q 697 4328 969 4595 
Q 1241 4863 1831 4863 
L 2375 4863 
z
" transform="scale(0.015625)"/>
       <path id="DejaVuSans-67" d="M 2906 1791 
Q 2906 2416 2648 2759 
Q 2391 3103 1925 3103 
Q 1463 3103 1205 2759 
Q 947 2416 947 1791 
Q 947 1169 1205 825 
Q 1463 481 1925 481 
Q 2391 481 2648 825 
Q 2906 1169 2906 1791 
z
M 3481 434 
Q 3481 -459 3084 -895 
Q 2688 -1331 1869 -1331 
Q 1566 -1331 1297 -1286 
Q 1028 -1241 775 -1147 
L 775 -588 
Q 1028 -725 1275 -790 
Q 1522 -856 1778 -856 
Q 2344 -856 2625 -561 
Q 2906 -266 2906 331 
L 2906 616 
Q 2728 306 2450 153 
Q 2172 0 1784 0 
Q 1141 0 747 490 
Q 353 981 353 1791 
Q 353 2603 747 3093 
Q 1141 3584 1784 3584 
Q 2172 3584 2450 3431 
Q 2728 3278 2906 2969 
L 2906 3500 
L 3481 3500 
L 3481 434 
z
" transform="scale(0.015625)"/>
       <path id="DejaVuSans-6e" d="M 3513 2113 
L 3513 0 
L 2938 0 
L 2938 2094 
Q 2938 2591 2744 2837 
Q 2550 3084 2163 3084 
Q 1697 3084 1428 2787 
Q 1159 2491 1159 1978 
L 1159 0 
L 581 0 
L 581 3500 
L 1159 3500 
L 1159 2956 
Q 1366 3272 1645 3428 
Q 1925 3584 2291 3584 
Q 2894 3584 3203 3211 
Q 3513 2838 3513 2113 
z
" transform="scale(0.015625)"/>
       <path id="DejaVuSans-73" d="M 2834 3397 
L 2834 2853 
Q 2591 2978 2328 3040 
Q 2066 3103 1784 3103 
Q 1356 3103 1142 2972 
Q 928 2841 928 2578 
Q 928 2378 1081 2264 
Q 1234 2150 1697 2047 
L 1894 2003 
Q 2506 1872 2764 1633 
Q 3022 1394 3022 966 
Q 3022 478 2636 193 
Q 2250 -91 1575 -91 
Q 1294 -91 989 -36 
Q 684 19 347 128 
L 347 722 
Q 666 556 975 473 
Q 1284 391 1588 391 
Q 1994 391 2212 530 
Q 2431 669 2431 922 
Q 2431 1156 2273 1281 
Q 2116 1406 1581 1522 
L 1381 1569 
Q 847 1681 609 1914 
Q 372 2147 372 2553 
Q 372 3047 722 3315 
Q 1072 3584 1716 3584 
Q 2034 3584 2315 3537 
Q 2597 3491 2834 3397 
z
" transform="scale(0.015625)"/>
      </defs>
      <use xlink:href="#DejaVuSans-4e"/>
      <use xlink:href="#DejaVuSans-75" transform="translate(74.804688 0)"/>
      <use xlink:href="#DejaVuSans-6d" transform="translate(138.183594 0)"/>
      <use xlink:href="#DejaVuSans-62" transform="translate(235.595703 0)"/>
      <use xlink:href="#DejaVuSans-65" transform="translate(299.072266 0)"/>
      <use xlink:href="#DejaVuSans-72" transform="translate(360.595703 0)"/>
      <use xlink:href="#DejaVuSans-20" transform="translate(401.708984 0)"/>
      <use xlink:href="#DejaVuSans-6f" transform="translate(433.496094 0)"/>
      <use xlink:href="#DejaVuSans-66" transform="translate(494.677734 0)"/>
      <use xlink:href="#DejaVuSans-20" transform="translate(529.882812 0)"/>
      <use xlink:href="#DejaVuSans-67" transform="translate(561.669922 0)"/>
      <use xlink:href="#DejaVuSans-65" transform="translate(625.146484 0)"/>
      <use xlink:href="#DejaVuSans-6e" transform="translate(686.669922 0)"/>
      <use xlink:href="#DejaVuSans-65" transform="translate(750.048828 0)"/>
      <use xlink:href="#DejaVuSans-73" transform="translate(811.572266 0)"/>
     </g>
    </g>
   </g>
   <g id="matplotlib.axis_2">
    <g id="ytick_1">
     <g id="line2d_9">
      <path d="M 42.765865 238.768452 
L 355.991017 238.768452 
" clip-path="url(#pc68682844d)" style="fill: none; stroke-dasharray: 2.96,1.28; stroke-dashoffset: 0; stroke: #b0b0b0; stroke-opacity: 0.25; stroke-width: 0.8"/>
     </g>
     <g id="line2d_10">
      <defs>
       <path id="mccf570e0e8" d="M 0 0 
L -3.5 0 
" style="stroke: #000000; stroke-width: 0.8"/>
      </defs>
      <g>
       <use xlink:href="#mccf570e0e8" x="42.765865" y="238.768452" style="stroke: #000000; stroke-width: 0.8"/>
      </g>
     </g>
     <g id="text_6">
      <!-- 20 -->
      <g transform="translate(23.040865 242.567671) scale(0.1 -0.1)">
       <use xlink:href="#DejaVuSans-32"/>
       <use xlink:href="#DejaVuSans-30" transform="translate(63.623047 0)"/>
      </g>
     </g>
    </g>
    <g id="ytick_2">
     <g id="line2d_11">
      <path d="M 42.765865 149.468399 
L 355.991017 149.468399 
" clip-path="url(#pc68682844d)" style="fill: none; stroke-dasharray: 2.96,1.28; stroke-dashoffset: 0; stroke: #b0b0b0; stroke-opacity: 0.25; stroke-width: 0.8"/>
     </g>
     <g id="line2d_12">
      <g>
       <use xlink:href="#mccf570e0e8" x="42.765865" y="149.468399" style="stroke: #000000; stroke-width: 0.8"/>
      </g>
     </g>
     <g id="text_7">
      <!-- 50 -->
      <g transform="translate(23.040865 153.267618) scale(0.1 -0.1)">
       <use xlink:href="#DejaVuSans-35"/>
       <use xlink:href="#DejaVuSans-30" transform="translate(63.623047 0)"/>
      </g>
     </g>
    </g>
    <g id="ytick_3">
     <g id="line2d_13">
      <path d="M 42.765865 81.915517 
L 355.991017 81.915517 
" clip-path="url(#pc68682844d)" style="fill: none; stroke-dasharray: 2.96,1.28; stroke-dashoffset: 0; stroke: #b0b0b0; stroke-opacity: 0.25; stroke-width: 0.8"/>
     </g>
     <g id="line2d_14">
      <g>
       <use xlink:href="#mccf570e0e8" x="42.765865" y="81.915517" style="stroke: #000000; stroke-width: 0.8"/>
      </g>
     </g>
     <g id="text_8">
      <!-- 100 -->
      <g transform="translate(16.678365 85.714736) scale(0.1 -0.1)">
       <use xlink:href="#DejaVuSans-31"/>
       <use xlink:href="#DejaVuSans-30" transform="translate(63.623047 0)"/>
       <use xlink:href="#DejaVuSans-30" transform="translate(127.246094 0)"/>
      </g>
     </g>
    </g>
    <g id="text_9">
     <!-- Runtime (seconds) -->
     <g transform="translate(10.598678 201.191875) rotate(-90) scale(0.1 -0.1)">
      <defs>
       <path id="DejaVuSans-52" d="M 2841 2188 
Q 3044 2119 3236 1894 
Q 3428 1669 3622 1275 
L 4263 0 
L 3584 0 
L 2988 1197 
Q 2756 1666 2539 1819 
Q 2322 1972 1947 1972 
L 1259 1972 
L 1259 0 
L 628 0 
L 628 4666 
L 2053 4666 
Q 2853 4666 3247 4331 
Q 3641 3997 3641 3322 
Q 3641 2881 3436 2590 
Q 3231 2300 2841 2188 
z
M 1259 4147 
L 1259 2491 
L 2053 2491 
Q 2509 2491 2742 2702 
Q 2975 2913 2975 3322 
Q 2975 3731 2742 3939 
Q 2509 4147 2053 4147 
L 1259 4147 
z
" transform="scale(0.015625)"/>
       <path id="DejaVuSans-74" d="M 1172 4494 
L 1172 3500 
L 2356 3500 
L 2356 3053 
L 1172 3053 
L 1172 1153 
Q 1172 725 1289 603 
Q 1406 481 1766 481 
L 2356 481 
L 2356 0 
L 1766 0 
Q 1100 0 847 248 
Q 594 497 594 1153 
L 594 3053 
L 172 3053 
L 172 3500 
L 594 3500 
L 594 4494 
L 1172 4494 
z
" transform="scale(0.015625)"/>
       <path id="DejaVuSans-69" d="M 603 3500 
L 1178 3500 
L 1178 0 
L 603 0 
L 603 3500 
z
M 603 4863 
L 1178 4863 
L 1178 4134 
L 603 4134 
L 603 4863 
z
" transform="scale(0.015625)"/>
       <path id="DejaVuSans-28" d="M 1984 4856 
Q 1566 4138 1362 3434 
Q 1159 2731 1159 2009 
Q 1159 1288 1364 580 
Q 1569 -128 1984 -844 
L 1484 -844 
Q 1016 -109 783 600 
Q 550 1309 550 2009 
Q 550 2706 781 3412 
Q 1013 4119 1484 4856 
L 1984 4856 
z
" transform="scale(0.015625)"/>
       <path id="DejaVuSans-63" d="M 3122 3366 
L 3122 2828 
Q 2878 2963 2633 3030 
Q 2388 3097 2138 3097 
Q 1578 3097 1268 2742 
Q 959 2388 959 1747 
Q 959 1106 1268 751 
Q 1578 397 2138 397 
Q 2388 397 2633 464 
Q 2878 531 3122 666 
L 3122 134 
Q 2881 22 2623 -34 
Q 2366 -91 2075 -91 
Q 1284 -91 818 406 
Q 353 903 353 1747 
Q 353 2603 823 3093 
Q 1294 3584 2113 3584 
Q 2378 3584 2631 3529 
Q 2884 3475 3122 3366 
z
" transform="scale(0.015625)"/>
       <path id="DejaVuSans-64" d="M 2906 2969 
L 2906 4863 
L 3481 4863 
L 3481 0 
L 2906 0 
L 2906 525 
Q 2725 213 2448 61 
Q 2172 -91 1784 -91 
Q 1150 -91 751 415 
Q 353 922 353 1747 
Q 353 2572 751 3078 
Q 1150 3584 1784 3584 
Q 2172 3584 2448 3432 
Q 2725 3281 2906 2969 
z
M 947 1747 
Q 947 1113 1208 752 
Q 1469 391 1925 391 
Q 2381 391 2643 752 
Q 2906 1113 2906 1747 
Q 2906 2381 2643 2742 
Q 2381 3103 1925 3103 
Q 1469 3103 1208 2742 
Q 947 2381 947 1747 
z
" transform="scale(0.015625)"/>
       <path id="DejaVuSans-29" d="M 513 4856 
L 1013 4856 
Q 1481 4119 1714 3412 
Q 1947 2706 1947 2009 
Q 1947 1309 1714 600 
Q 1481 -109 1013 -844 
L 513 -844 
Q 928 -128 1133 580 
Q 1338 1288 1338 2009 
Q 1338 2731 1133 3434 
Q 928 4138 513 4856 
z
" transform="scale(0.015625)"/>
      </defs>
      <use xlink:href="#DejaVuSans-52"/>
      <use xlink:href="#DejaVuSans-75" transform="translate(64.982422 0)"/>
      <use xlink:href="#DejaVuSans-6e" transform="translate(128.361328 0)"/>
      <use xlink:href="#DejaVuSans-74" transform="translate(191.740234 0)"/>
      <use xlink:href="#DejaVuSans-69" transform="translate(230.949219 0)"/>
      <use xlink:href="#DejaVuSans-6d" transform="translate(258.732422 0)"/>
      <use xlink:href="#DejaVuSans-65" transform="translate(356.144531 0)"/>
      <use xlink:href="#DejaVuSans-20" transform="translate(417.667969 0)"/>
      <use xlink:href="#DejaVuSans-28" transform="translate(449.455078 0)"/>
      <use xlink:href="#DejaVuSans-73" transform="translate(488.46875 0)"/>
      <use xlink:href="#DejaVuSans-65" transform="translate(540.568359 0)"/>
      <use xlink:href="#DejaVuSans-63" transform="translate(602.091797 0)"/>
      <use xlink:href="#DejaVuSans-6f" transform="translate(657.072266 0)"/>
      <use xlink:href="#DejaVuSans-6e" transform="translate(718.253906 0)"/>
      <use xlink:href="#DejaVuSans-64" transform="translate(781.632812 0)"/>
      <use xlink:href="#DejaVuSans-73" transform="translate(845.109375 0)"/>
      <use xlink:href="#DejaVuSans-29" transform="translate(897.208984 0)"/>
     </g>
    </g>
   </g>
   <g id="line2d_15">
    <path d="M 57.003372 275.497078 
L 151.920085 278.133197 
L 246.836797 276.022375 
L 341.75351 276.378731 
" clip-path="url(#pc68682844d)" style="fill: none; stroke: #1f77b4; stroke-width: 2; stroke-linecap: square"/>
    <defs>
     <path id="m95dfedc856" d="M 0 3 
C 0.795609 3 1.55874 2.683901 2.12132 2.12132 
C 2.683901 1.55874 3 0.795609 3 0 
C 3 -0.795609 2.683901 -1.55874 2.12132 -2.12132 
C 1.55874 -2.683901 0.795609 -3 0 -3 
C -0.795609 -3 -1.55874 -2.683901 -2.12132 -2.12132 
C -2.683901 -1.55874 -3 -0.795609 -3 0 
C -3 0.795609 -2.683901 1.55874 -2.12132 2.12132 
C -1.55874 2.683901 -0.795609 3 0 3 
z
" style="stroke: #1f77b4"/>
    </defs>
    <g clip-path="url(#pc68682844d)">
     <use xlink:href="#m95dfedc856" x="57.003372" y="275.497078" style="fill: #1f77b4; stroke: #1f77b4"/>
     <use xlink:href="#m95dfedc856" x="151.920085" y="278.133197" style="fill: #1f77b4; stroke: #1f77b4"/>
     <use xlink:href="#m95dfedc856" x="246.836797" y="276.022375" style="fill: #1f77b4; stroke: #1f77b4"/>
     <use xlink:href="#m95dfedc856" x="341.75351" y="276.378731" style="fill: #1f77b4; stroke: #1f77b4"/>
    </g>
   </g>
   <g id="line2d_16">
    <path d="M 57.003372 211.288521 
L 151.920085 195.59982 
L 246.836797 188.925252 
L 341.75351 191.22522 
" clip-path="url(#pc68682844d)" style="fill: none; stroke: #ff7f0e; stroke-width: 2; stroke-linecap: square"/>
    <defs>
     <path id="mb7a3de6f40" d="M 0 3 
C 0.795609 3 1.55874 2.683901 2.12132 2.12132 
C 2.683901 1.55874 3 0.795609 3 0 
C 3 -0.795609 2.683901 -1.55874 2.12132 -2.12132 
C 1.55874 -2.683901 0.795609 -3 0 -3 
C -0.795609 -3 -1.55874 -2.683901 -2.12132 -2.12132 
C -2.683901 -1.55874 -3 -0.795609 -3 0 
C -3 0.795609 -2.683901 1.55874 -2.12132 2.12132 
C -1.55874 2.683901 -0.795609 3 0 3 
z
" style="stroke: #ff7f0e"/>
    </defs>
    <g clip-path="url(#pc68682844d)">
     <use xlink:href="#mb7a3de6f40" x="57.003372" y="211.288521" style="fill: #ff7f0e; stroke: #ff7f0e"/>
     <use xlink:href="#mb7a3de6f40" x="151.920085" y="195.59982" style="fill: #ff7f0e; stroke: #ff7f0e"/>
     <use xlink:href="#mb7a3de6f40" x="246.836797" y="188.925252" style="fill: #ff7f0e; stroke: #ff7f0e"/>
     <use xlink:href="#mb7a3de6f40" x="341.75351" y="191.22522" style="fill: #ff7f0e; stroke: #ff7f0e"/>
    </g>
   </g>
   <g id="line2d_17">
    <path d="M 57.003372 143.068899 
L 151.920085 124.129973 
L 246.836797 139.154081 
L 341.75351 145.299183 
" clip-path="url(#pc68682844d)" style="fill: none; stroke: #2ca02c; stroke-width: 2; stroke-linecap: square"/>
    <defs>
     <path id="mef8c5ae448" d="M 0 3 
C 0.795609 3 1.55874 2.683901 2.12132 2.12132 
C 2.683901 1.55874 3 0.795609 3 0 
C 3 -0.795609 2.683901 -1.55874 2.12132 -2.12132 
C 1.55874 -2.683901 0.795609 -3 0 -3 
C -0.795609 -3 -1.55874 -2.683901 -2.12132 -2.12132 
C -2.683901 -1.55874 -3 -0.795609 -3 0 
C -3 0.795609 -2.683901 1.55874 -2.12132 2.12132 
C -1.55874 2.683901 -0.795609 3 0 3 
z
" style="stroke: #2ca02c"/>
    </defs>
    <g clip-path="url(#pc68682844d)">
     <use xlink:href="#mef8c5ae448" x="57.003372" y="143.068899" style="fill: #2ca02c; stroke: #2ca02c"/>
     <use xlink:href="#mef8c5ae448" x="151.920085" y="124.129973" style="fill: #2ca02c; stroke: #2ca02c"/>
     <use xlink:href="#mef8c5ae448" x="246.836797" y="139.154081" style="fill: #2ca02c; stroke: #2ca02c"/>
     <use xlink:href="#mef8c5ae448" x="341.75351" y="145.299183" style="fill: #2ca02c; stroke: #2ca02c"/>
    </g>
   </g>
   <g id="line2d_18">
    <path d="M 57.003372 43.099006 
L 151.920085 71.719809 
L 246.836797 39.738245 
L 341.75351 73.169894 
" clip-path="url(#pc68682844d)" style="fill: none; stroke: #d62728; stroke-width: 2; stroke-linecap: square"/>
    <defs>
     <path id="m127fbf5aec" d="M 0 3 
C 0.795609 3 1.55874 2.683901 2.12132 2.12132 
C 2.683901 1.55874 3 0.795609 3 0 
C 3 -0.795609 2.683901 -1.55874 2.12132 -2.12132 
C 1.55874 -2.683901 0.795609 -3 0 -3 
C -0.795609 -3 -1.55874 -2.683901 -2.12132 -2.12132 
C -2.683901 -1.55874 -3 -0.795609 -3 0 
C -3 0.795609 -2.683901 1.55874 -2.12132 2.12132 
C -1.55874 2.683901 -0.795609 3 0 3 
z
" style="stroke: #d62728"/>
    </defs>
    <g clip-path="url(#pc68682844d)">
     <use xlink:href="#m127fbf5aec" x="57.003372" y="43.099006" style="fill: #d62728; stroke: #d62728"/>
     <use xlink:href="#m127fbf5aec" x="151.920085" y="71.719809" style="fill: #d62728; stroke: #d62728"/>
     <use xlink:href="#m127fbf5aec" x="246.836797" y="39.738245" style="fill: #d62728; stroke: #d62728"/>
     <use xlink:href="#m127fbf5aec" x="341.75351" y="73.169894" style="fill: #d62728; stroke: #d62728"/>
    </g>
   </g>
   <g id="patch_3">
    <path d="M 42.765865 290.64351 
L 42.765865 18.118365 
" style="fill: none; stroke: #000000; stroke-width: 0.8; stroke-linejoin: miter; stroke-linecap: square"/>
   </g>
   <g id="patch_4">
    <path d="M 355.991017 290.64351 
L 355.991017 18.118365 
" style="fill: none; stroke: #000000; stroke-width: 0.8; stroke-linejoin: miter; stroke-linecap: square"/>
   </g>
   <g id="patch_5">
    <path d="M 42.765865 290.64351 
L 355.991017 290.64351 
" style="fill: none; stroke: #000000; stroke-width: 0.8; stroke-linejoin: miter; stroke-linecap: square"/>
   </g>
   <g id="patch_6">
    <path d="M 42.765865 18.118365 
L 355.991017 18.118365 
" style="fill: none; stroke: #000000; stroke-width: 0.8; stroke-linejoin: miter; stroke-linecap: square"/>
   </g>
   <g id="text_10">
    <!-- Setup Time vs Genes -->
    <g transform="translate(135.875004 12.118365) scale(0.12 -0.12)">
     <defs>
      <path id="DejaVuSans-53" d="M 3425 4513 
L 3425 3897 
Q 3066 4069 2747 4153 
Q 2428 4238 2131 4238 
Q 1616 4238 1336 4038 
Q 1056 3838 1056 3469 
Q 1056 3159 1242 3001 
Q 1428 2844 1947 2747 
L 2328 2669 
Q 3034 2534 3370 2195 
Q 3706 1856 3706 1288 
Q 3706 609 3251 259 
Q 2797 -91 1919 -91 
Q 1588 -91 1214 -16 
Q 841 59 441 206 
L 441 856 
Q 825 641 1194 531 
Q 1563 422 1919 422 
Q 2459 422 2753 634 
Q 3047 847 3047 1241 
Q 3047 1584 2836 1778 
Q 2625 1972 2144 2069 
L 1759 2144 
Q 1053 2284 737 2584 
Q 422 2884 422 3419 
Q 422 4038 858 4394 
Q 1294 4750 2059 4750 
Q 2388 4750 2728 4690 
Q 3069 4631 3425 4513 
z
" transform="scale(0.015625)"/>
      <path id="DejaVuSans-70" d="M 1159 525 
L 1159 -1331 
L 581 -1331 
L 581 3500 
L 1159 3500 
L 1159 2969 
Q 1341 3281 1617 3432 
Q 1894 3584 2278 3584 
Q 2916 3584 3314 3078 
Q 3713 2572 3713 1747 
Q 3713 922 3314 415 
Q 2916 -91 2278 -91 
Q 1894 -91 1617 61 
Q 1341 213 1159 525 
z
M 3116 1747 
Q 3116 2381 2855 2742 
Q 2594 3103 2138 3103 
Q 1681 3103 1420 2742 
Q 1159 2381 1159 1747 
Q 1159 1113 1420 752 
Q 1681 391 2138 391 
Q 2594 391 2855 752 
Q 3116 1113 3116 1747 
z
" transform="scale(0.015625)"/>
      <path id="DejaVuSans-54" d="M -19 4666 
L 3928 4666 
L 3928 4134 
L 2272 4134 
L 2272 0 
L 1638 0 
L 1638 4134 
L -19 4134 
L -19 4666 
z
" transform="scale(0.015625)"/>
      <path id="DejaVuSans-76" d="M 191 3500 
L 800 3500 
L 1894 563 
L 2988 3500 
L 3597 3500 
L 2284 0 
L 1503 0 
L 191 3500 
z
" transform="scale(0.015625)"/>
      <path id="DejaVuSans-47" d="M 3809 666 
L 3809 1919 
L 2778 1919 
L 2778 2438 
L 4434 2438 
L 4434 434 
Q 4069 175 3628 42 
Q 3188 -91 2688 -91 
Q 1594 -91 976 548 
Q 359 1188 359 2328 
Q 359 3472 976 4111 
Q 1594 4750 2688 4750 
Q 3144 4750 3555 4637 
Q 3966 4525 4313 4306 
L 4313 3634 
Q 3963 3931 3569 4081 
Q 3175 4231 2741 4231 
Q 1884 4231 1454 3753 
Q 1025 3275 1025 2328 
Q 1025 1384 1454 906 
Q 1884 428 2741 428 
Q 3075 428 3337 486 
Q 3600 544 3809 666 
z
" transform="scale(0.015625)"/>
     </defs>
     <use xlink:href="#DejaVuSans-53"/>
     <use xlink:href="#DejaVuSans-65" transform="translate(63.476562 0)"/>
     <use xlink:href="#DejaVuSans-74" transform="translate(125 0)"/>
     <use xlink:href="#DejaVuSans-75" transform="translate(164.208984 0)"/>
     <use xlink:href="#DejaVuSans-70" transform="translate(227.587891 0)"/>
     <use xlink:href="#DejaVuSans-20" transform="translate(291.064453 0)"/>
     <use xlink:href="#DejaVuSans-54" transform="translate(322.851562 0)"/>
     <use xlink:href="#DejaVuSans-69" transform="translate(380.810547 0)"/>
     <use xlink:href="#DejaVuSans-6d" transform="translate(408.59375 0)"/>
     <use xlink:href="#DejaVuSans-65" transform="translate(506.005859 0)"/>
     <use xlink:href="#DejaVuSans-20" transform="translate(567.529297 0)"/>
     <use xlink:href="#DejaVuSans-76" transform="translate(599.316406 0)"/>
     <use xlink:href="#DejaVuSans-73" transform="translate(658.496094 0)"/>
     <use xlink:href="#DejaVuSans-20" transform="translate(710.595703 0)"/>
     <use xlink:href="#DejaVuSans-47" transform="translate(742.382812 0)"/>
     <use xlink:href="#DejaVuSans-65" transform="translate(819.873047 0)"/>
     <use xlink:href="#DejaVuSans-6e" transform="translate(881.396484 0)"/>
     <use xlink:href="#DejaVuSans-65" transform="translate(944.775391 0)"/>
     <use xlink:href="#DejaVuSans-73" transform="translate(1006.298828 0)"/>
    </g>
   </g>
  </g>
  <g id="axes_2">
   <g id="patch_7">
    <path d="M 403.165705 290.64351 
L 716.390857 290.64351 
L 716.390857 18.118365 
L 403.165705 18.118365 
z
" style="fill: #ffffff"/>
   </g>
   <g id="FillBetweenPolyCollection_5">
    <path d="M 417.403212 274.390277 
L 417.403212 278.256003 
L 512.319925 243.155655 
L 607.236637 206.708336 
L 702.15335 167.593712 
L 702.15335 166.239866 
L 702.15335 166.239866 
L 607.236637 205.022016 
L 512.319925 242.071441 
L 417.403212 274.390277 
z
" clip-path="url(#p7bf6c608c2)" style="fill: #1f77b4; fill-opacity: 0.15"/>
   </g>
   <g id="FillBetweenPolyCollection_6">
    <path d="M 417.403212 235.547466 
L 417.403212 237.484368 
L 512.319925 200.960983 
L 607.236637 163.178965 
L 702.15335 123.967739 
L 702.15335 122.444313 
L 702.15335 122.444313 
L 607.236637 160.709095 
L 512.319925 198.456585 
L 417.403212 235.547466 
z
" clip-path="url(#p7bf6c608c2)" style="fill: #ff7f0e; fill-opacity: 0.15"/>
   </g>
   <g id="FillBetweenPolyCollection_7">
    <path d="M 417.403212 181.35125 
L 417.403212 189.629282 
L 512.319925 146.026353 
L 607.236637 115.936295 
L 702.15335 83.101166 
L 702.15335 76.646511 
L 702.15335 76.646511 
L 607.236637 114.749924 
L 512.319925 140.988816 
L 417.403212 181.35125 
z
" clip-path="url(#p7bf6c608c2)" style="fill: #2ca02c; fill-opacity: 0.15"/>
   </g>
   <g id="FillBetweenPolyCollection_8">
    <path d="M 417.403212 138.56091 
L 417.403212 146.683647 
L 512.319925 108.373508 
L 607.236637 65.754664 
L 702.15335 36.752476 
L 702.15335 30.505872 
L 702.15335 30.505872 
L 607.236637 63.969923 
L 512.319925 102.89678 
L 417.403212 138.56091 
z
" clip-path="url(#p7bf6c608c2)" style="fill: #d62728; fill-opacity: 0.15"/>
   </g>
   <g id="matplotlib.axis_3">
    <g id="xtick_5">
     <g id="line2d_19">
      <path d="M 417.403212 290.64351 
L 417.403212 18.118365 
" clip-path="url(#p7bf6c608c2)" style="fill: none; stroke-dasharray: 2.96,1.28; stroke-dashoffset: 0; stroke: #b0b0b0; stroke-opacity: 0.25; stroke-width: 0.8"/>
     </g>
     <g id="line2d_20">
      <g>
       <use xlink:href="#mc4e8c62676" x="417.403212" y="290.64351" style="stroke: #000000; stroke-width: 0.8"/>
      </g>
     </g>
     <g id="text_11">
      <!-- 500 -->
      <g transform="translate(407.859462 305.241947) scale(0.1 -0.1)">
       <use xlink:href="#DejaVuSans-35"/>
       <use xlink:href="#DejaVuSans-30" transform="translate(63.623047 0)"/>
       <use xlink:href="#DejaVuSans-30" transform="translate(127.246094 0)"/>
      </g>
     </g>
    </g>
    <g id="xtick_6">
     <g id="line2d_21">
      <path d="M 512.319925 290.64351 
L 512.319925 18.118365 
" clip-path="url(#p7bf6c608c2)" style="fill: none; stroke-dasharray: 2.96,1.28; stroke-dashoffset: 0; stroke: #b0b0b0; stroke-opacity: 0.25; stroke-width: 0.8"/>
     </g>
     <g id="line2d_22">
      <g>
       <use xlink:href="#mc4e8c62676" x="512.319925" y="290.64351" style="stroke: #000000; stroke-width: 0.8"/>
      </g>
     </g>
     <g id="text_12">
      <!-- 1,000 -->
      <g transform="translate(498.005862 305.241947) scale(0.1 -0.1)">
       <use xlink:href="#DejaVuSans-31"/>
       <use xlink:href="#DejaVuSans-2c" transform="translate(63.623047 0)"/>
       <use xlink:href="#DejaVuSans-30" transform="translate(95.410156 0)"/>
       <use xlink:href="#DejaVuSans-30" transform="translate(159.033203 0)"/>
       <use xlink:href="#DejaVuSans-30" transform="translate(222.65625 0)"/>
      </g>
     </g>
    </g>
    <g id="xtick_7">
     <g id="line2d_23">
      <path d="M 607.236637 290.64351 
L 607.236637 18.118365 
" clip-path="url(#p7bf6c608c2)" style="fill: none; stroke-dasharray: 2.96,1.28; stroke-dashoffset: 0; stroke: #b0b0b0; stroke-opacity: 0.25; stroke-width: 0.8"/>
     </g>
     <g id="line2d_24">
      <g>
       <use xlink:href="#mc4e8c62676" x="607.236637" y="290.64351" style="stroke: #000000; stroke-width: 0.8"/>
      </g>
     </g>
     <g id="text_13">
      <!-- 2,000 -->
      <g transform="translate(592.922575 305.241947) scale(0.1 -0.1)">
       <use xlink:href="#DejaVuSans-32"/>
       <use xlink:href="#DejaVuSans-2c" transform="translate(63.623047 0)"/>
       <use xlink:href="#DejaVuSans-30" transform="translate(95.410156 0)"/>
       <use xlink:href="#DejaVuSans-30" transform="translate(159.033203 0)"/>
       <use xlink:href="#DejaVuSans-30" transform="translate(222.65625 0)"/>
      </g>
     </g>
    </g>
    <g id="xtick_8">
     <g id="line2d_25">
      <path d="M 702.15335 290.64351 
L 702.15335 18.118365 
" clip-path="url(#p7bf6c608c2)" style="fill: none; stroke-dasharray: 2.96,1.28; stroke-dashoffset: 0; stroke: #b0b0b0; stroke-opacity: 0.25; stroke-width: 0.8"/>
     </g>
     <g id="line2d_26">
      <g>
       <use xlink:href="#mc4e8c62676" x="702.15335" y="290.64351" style="stroke: #000000; stroke-width: 0.8"/>
      </g>
     </g>
     <g id="text_14">
      <!-- 4,000 -->
      <g transform="translate(687.839288 305.241947) scale(0.1 -0.1)">
       <use xlink:href="#DejaVuSans-34"/>
       <use xlink:href="#DejaVuSans-2c" transform="translate(63.623047 0)"/>
       <use xlink:href="#DejaVuSans-30" transform="translate(95.410156 0)"/>
       <use xlink:href="#DejaVuSans-30" transform="translate(159.033203 0)"/>
       <use xlink:href="#DejaVuSans-30" transform="translate(222.65625 0)"/>
      </g>
     </g>
    </g>
    <g id="text_15">
     <!-- Number of genes -->
     <g transform="translate(516.593906 318.920073) scale(0.1 -0.1)">
      <use xlink:href="#DejaVuSans-4e"/>
      <use xlink:href="#DejaVuSans-75" transform="translate(74.804688 0)"/>
      <use xlink:href="#DejaVuSans-6d" transform="translate(138.183594 0)"/>
      <use xlink:href="#DejaVuSans-62" transform="translate(235.595703 0)"/>
      <use xlink:href="#DejaVuSans-65" transform="translate(299.072266 0)"/>
      <use xlink:href="#DejaVuSans-72" transform="translate(360.595703 0)"/>
      <use xlink:href="#DejaVuSans-20" transform="translate(401.708984 0)"/>
      <use xlink:href="#DejaVuSans-6f" transform="translate(433.496094 0)"/>
      <use xlink:href="#DejaVuSans-66" transform="translate(494.677734 0)"/>
      <use xlink:href="#DejaVuSans-20" transform="translate(529.882812 0)"/>
      <use xlink:href="#DejaVuSans-67" transform="translate(561.669922 0)"/>
      <use xlink:href="#DejaVuSans-65" transform="translate(625.146484 0)"/>
      <use xlink:href="#DejaVuSans-6e" transform="translate(686.669922 0)"/>
      <use xlink:href="#DejaVuSans-65" transform="translate(750.048828 0)"/>
      <use xlink:href="#DejaVuSans-73" transform="translate(811.572266 0)"/>
     </g>
    </g>
   </g>
   <g id="matplotlib.axis_4">
    <g id="ytick_4">
     <g id="line2d_27">
      <path d="M 403.165705 252.373689 
L 716.390857 252.373689 
" clip-path="url(#p7bf6c608c2)" style="fill: none; stroke-dasharray: 2.96,1.28; stroke-dashoffset: 0; stroke: #b0b0b0; stroke-opacity: 0.25; stroke-width: 0.8"/>
     </g>
     <g id="line2d_28">
      <g>
       <use xlink:href="#mccf570e0e8" x="403.165705" y="252.373689" style="stroke: #000000; stroke-width: 0.8"/>
      </g>
     </g>
     <g id="text_16">
      <!-- 5 -->
      <g transform="translate(389.803205 256.172908) scale(0.1 -0.1)">
       <use xlink:href="#DejaVuSans-35"/>
      </g>
     </g>
    </g>
    <g id="ytick_5">
     <g id="line2d_29">
      <path d="M 403.165705 215.360385 
L 716.390857 215.360385 
" clip-path="url(#p7bf6c608c2)" style="fill: none; stroke-dasharray: 2.96,1.28; stroke-dashoffset: 0; stroke: #b0b0b0; stroke-opacity: 0.25; stroke-width: 0.8"/>
     </g>
     <g id="line2d_30">
      <g>
       <use xlink:href="#mccf570e0e8" x="403.165705" y="215.360385" style="stroke: #000000; stroke-width: 0.8"/>
      </g>
     </g>
     <g id="text_17">
      <!-- 10 -->
      <g transform="translate(383.440705 219.159604) scale(0.1 -0.1)">
       <use xlink:href="#DejaVuSans-31"/>
       <use xlink:href="#DejaVuSans-30" transform="translate(63.623047 0)"/>
      </g>
     </g>
    </g>
    <g id="ytick_6">
     <g id="line2d_31">
      <path d="M 403.165705 178.347081 
L 716.390857 178.347081 
" clip-path="url(#p7bf6c608c2)" style="fill: none; stroke-dasharray: 2.96,1.28; stroke-dashoffset: 0; stroke: #b0b0b0; stroke-opacity: 0.25; stroke-width: 0.8"/>
     </g>
     <g id="line2d_32">
      <g>
       <use xlink:href="#mccf570e0e8" x="403.165705" y="178.347081" style="stroke: #000000; stroke-width: 0.8"/>
      </g>
     </g>
     <g id="text_18">
      <!-- 20 -->
      <g transform="translate(383.440705 182.1463) scale(0.1 -0.1)">
       <use xlink:href="#DejaVuSans-32"/>
       <use xlink:href="#DejaVuSans-30" transform="translate(63.623047 0)"/>
      </g>
     </g>
    </g>
    <g id="ytick_7">
     <g id="line2d_33">
      <path d="M 403.165705 129.418155 
L 716.390857 129.418155 
" clip-path="url(#p7bf6c608c2)" style="fill: none; stroke-dasharray: 2.96,1.28; stroke-dashoffset: 0; stroke: #b0b0b0; stroke-opacity: 0.25; stroke-width: 0.8"/>
     </g>
     <g id="line2d_34">
      <g>
       <use xlink:href="#mccf570e0e8" x="403.165705" y="129.418155" style="stroke: #000000; stroke-width: 0.8"/>
      </g>
     </g>
     <g id="text_19">
      <!-- 50 -->
      <g transform="translate(383.440705 133.217374) scale(0.1 -0.1)">
       <use xlink:href="#DejaVuSans-35"/>
       <use xlink:href="#DejaVuSans-30" transform="translate(63.623047 0)"/>
      </g>
     </g>
    </g>
    <g id="ytick_8">
     <g id="line2d_35">
      <path d="M 403.165705 92.404851 
L 716.390857 92.404851 
" clip-path="url(#p7bf6c608c2)" style="fill: none; stroke-dasharray: 2.96,1.28; stroke-dashoffset: 0; stroke: #b0b0b0; stroke-opacity: 0.25; stroke-width: 0.8"/>
     </g>
     <g id="line2d_36">
      <g>
       <use xlink:href="#mccf570e0e8" x="403.165705" y="92.404851" style="stroke: #000000; stroke-width: 0.8"/>
      </g>
     </g>
     <g id="text_20">
      <!-- 100 -->
      <g transform="translate(377.078205 96.20407) scale(0.1 -0.1)">
       <use xlink:href="#DejaVuSans-31"/>
       <use xlink:href="#DejaVuSans-30" transform="translate(63.623047 0)"/>
       <use xlink:href="#DejaVuSans-30" transform="translate(127.246094 0)"/>
      </g>
     </g>
    </g>
    <g id="ytick_9">
     <g id="line2d_37">
      <path d="M 403.165705 55.391547 
L 716.390857 55.391547 
" clip-path="url(#p7bf6c608c2)" style="fill: none; stroke-dasharray: 2.96,1.28; stroke-dashoffset: 0; stroke: #b0b0b0; stroke-opacity: 0.25; stroke-width: 0.8"/>
     </g>
     <g id="line2d_38">
      <g>
       <use xlink:href="#mccf570e0e8" x="403.165705" y="55.391547" style="stroke: #000000; stroke-width: 0.8"/>
      </g>
     </g>
     <g id="text_21">
      <!-- 200 -->
      <g transform="translate(377.078205 59.190766) scale(0.1 -0.1)">
       <use xlink:href="#DejaVuSans-32"/>
       <use xlink:href="#DejaVuSans-30" transform="translate(63.623047 0)"/>
       <use xlink:href="#DejaVuSans-30" transform="translate(127.246094 0)"/>
      </g>
     </g>
    </g>
    <g id="text_22">
     <!-- Runtime (seconds) -->
     <g transform="translate(370.998518 201.191875) rotate(-90) scale(0.1 -0.1)">
      <use xlink:href="#DejaVuSans-52"/>
      <use xlink:href="#DejaVuSans-75" transform="translate(64.982422 0)"/>
      <use xlink:href="#DejaVuSans-6e" transform="translate(128.361328 0)"/>
      <use xlink:href="#DejaVuSans-74" transform="translate(191.740234 0)"/>
      <use xlink:href="#DejaVuSans-69" transform="translate(230.949219 0)"/>
      <use xlink:href="#DejaVuSans-6d" transform="translate(258.732422 0)"/>
      <use xlink:href="#DejaVuSans-65" transform="translate(356.144531 0)"/>
      <use xlink:href="#DejaVuSans-20" transform="translate(417.667969 0)"/>
      <use xlink:href="#DejaVuSans-28" transform="translate(449.455078 0)"/>
      <use xlink:href="#DejaVuSans-73" transform="translate(488.46875 0)"/>
      <use xlink:href="#DejaVuSans-65" transform="translate(540.568359 0)"/>
      <use xlink:href="#DejaVuSans-63" transform="translate(602.091797 0)"/>
      <use xlink:href="#DejaVuSans-6f" transform="translate(657.072266 0)"/>
      <use xlink:href="#DejaVuSans-6e" transform="translate(718.253906 0)"/>
      <use xlink:href="#DejaVuSans-64" transform="translate(781.632812 0)"/>
      <use xlink:href="#DejaVuSans-73" transform="translate(845.109375 0)"/>
      <use xlink:href="#DejaVuSans-29" transform="translate(897.208984 0)"/>
     </g>
    </g>
   </g>
   <g id="line2d_39">
    <path d="M 417.403212 275.834104 
L 512.319925 242.857846 
L 607.236637 205.897386 
L 702.15335 166.827851 
" clip-path="url(#p7bf6c608c2)" style="fill: none; stroke: #1f77b4; stroke-width: 2; stroke-linecap: square"/>
    <g clip-path="url(#p7bf6c608c2)">
     <use xlink:href="#m95dfedc856" x="417.403212" y="275.834104" style="fill: #1f77b4; stroke: #1f77b4"/>
     <use xlink:href="#m95dfedc856" x="512.319925" y="242.857846" style="fill: #1f77b4; stroke: #1f77b4"/>
     <use xlink:href="#m95dfedc856" x="607.236637" y="205.897386" style="fill: #1f77b4; stroke: #1f77b4"/>
     <use xlink:href="#m95dfedc856" x="702.15335" y="166.827851" style="fill: #1f77b4; stroke: #1f77b4"/>
    </g>
   </g>
   <g id="line2d_40">
    <path d="M 417.403212 235.643836 
L 512.319925 200.958325 
L 607.236637 161.641041 
L 702.15335 123.826742 
" clip-path="url(#p7bf6c608c2)" style="fill: none; stroke: #ff7f0e; stroke-width: 2; stroke-linecap: square"/>
    <g clip-path="url(#p7bf6c608c2)">
     <use xlink:href="#mb7a3de6f40" x="417.403212" y="235.643836" style="fill: #ff7f0e; stroke: #ff7f0e"/>
     <use xlink:href="#mb7a3de6f40" x="512.319925" y="200.958325" style="fill: #ff7f0e; stroke: #ff7f0e"/>
     <use xlink:href="#mb7a3de6f40" x="607.236637" y="161.641041" style="fill: #ff7f0e; stroke: #ff7f0e"/>
     <use xlink:href="#mb7a3de6f40" x="702.15335" y="123.826742" style="fill: #ff7f0e; stroke: #ff7f0e"/>
    </g>
   </g>
   <g id="line2d_41">
    <path d="M 417.403212 185.558837 
L 512.319925 141.583851 
L 607.236637 115.350932 
L 702.15335 78.976137 
" clip-path="url(#p7bf6c608c2)" style="fill: none; stroke: #2ca02c; stroke-width: 2; stroke-linecap: square"/>
    <g clip-path="url(#p7bf6c608c2)">
     <use xlink:href="#mef8c5ae448" x="417.403212" y="185.558837" style="fill: #2ca02c; stroke: #2ca02c"/>
     <use xlink:href="#mef8c5ae448" x="512.319925" y="141.583851" style="fill: #2ca02c; stroke: #2ca02c"/>
     <use xlink:href="#mef8c5ae448" x="607.236637" y="115.350932" style="fill: #2ca02c; stroke: #2ca02c"/>
     <use xlink:href="#mef8c5ae448" x="702.15335" y="78.976137" style="fill: #2ca02c; stroke: #2ca02c"/>
    </g>
   </g>
   <g id="line2d_42">
    <path d="M 417.403212 142.732598 
L 512.319925 105.359118 
L 607.236637 65.354481 
L 702.15335 32.855749 
" clip-path="url(#p7bf6c608c2)" style="fill: none; stroke: #d62728; stroke-width: 2; stroke-linecap: square"/>
    <g clip-path="url(#p7bf6c608c2)">
     <use xlink:href="#m127fbf5aec" x="417.403212" y="142.732598" style="fill: #d62728; stroke: #d62728"/>
     <use xlink:href="#m127fbf5aec" x="512.319925" y="105.359118" style="fill: #d62728; stroke: #d62728"/>
     <use xlink:href="#m127fbf5aec" x="607.236637" y="65.354481" style="fill: #d62728; stroke: #d62728"/>
     <use xlink:href="#m127fbf5aec" x="702.15335" y="32.855749" style="fill: #d62728; stroke: #d62728"/>
    </g>
   </g>
   <g id="patch_8">
    <path d="M 403.165705 290.64351 
L 403.165705 18.118365 
" style="fill: none; stroke: #000000; stroke-width: 0.8; stroke-linejoin: miter; stroke-linecap: square"/>
   </g>
   <g id="patch_9">
    <path d="M 716.390857 290.64351 
L 716.390857 18.118365 
" style="fill: none; stroke: #000000; stroke-width: 0.8; stroke-linejoin: miter; stroke-linecap: square"/>
   </g>
   <g id="patch_10">
    <path d="M 403.165705 290.64351 
L 716.390857 290.64351 
" style="fill: none; stroke: #000000; stroke-width: 0.8; stroke-linejoin: miter; stroke-linecap: square"/>
   </g>
   <g id="patch_11">
    <path d="M 403.165705 18.118365 
L 716.390857 18.118365 
" style="fill: none; stroke: #000000; stroke-width: 0.8; stroke-linejoin: miter; stroke-linecap: square"/>
   </g>
   <g id="text_23">
    <!-- Scan Time vs Genes -->
    <g transform="translate(499.152031 12.118365) scale(0.12 -0.12)">
     <defs>
      <path id="DejaVuSans-61" d="M 2194 1759 
Q 1497 1759 1228 1600 
Q 959 1441 959 1056 
Q 959 750 1161 570 
Q 1363 391 1709 391 
Q 2188 391 2477 730 
Q 2766 1069 2766 1631 
L 2766 1759 
L 2194 1759 
z
M 3341 1997 
L 3341 0 
L 2766 0 
L 2766 531 
Q 2569 213 2275 61 
Q 1981 -91 1556 -91 
Q 1019 -91 701 211 
Q 384 513 384 1019 
Q 384 1609 779 1909 
Q 1175 2209 1959 2209 
L 2766 2209 
L 2766 2266 
Q 2766 2663 2505 2880 
Q 2244 3097 1772 3097 
Q 1472 3097 1187 3025 
Q 903 2953 641 2809 
L 641 3341 
Q 956 3463 1253 3523 
Q 1550 3584 1831 3584 
Q 2591 3584 2966 3190 
Q 3341 2797 3341 1997 
z
" transform="scale(0.015625)"/>
     </defs>
     <use xlink:href="#DejaVuSans-53"/>
     <use xlink:href="#DejaVuSans-63" transform="translate(63.476562 0)"/>
     <use xlink:href="#DejaVuSans-61" transform="translate(118.457031 0)"/>
     <use xlink:href="#DejaVuSans-6e" transform="translate(179.736328 0)"/>
     <use xlink:href="#DejaVuSans-20" transform="translate(243.115234 0)"/>
     <use xlink:href="#DejaVuSans-54" transform="translate(274.902344 0)"/>
     <use xlink:href="#DejaVuSans-69" transform="translate(332.861328 0)"/>
     <use xlink:href="#DejaVuSans-6d" transform="translate(360.644531 0)"/>
     <use xlink:href="#DejaVuSans-65" transform="translate(458.056641 0)"/>
     <use xlink:href="#DejaVuSans-20" transform="translate(519.580078 0)"/>
     <use xlink:href="#DejaVuSans-76" transform="translate(551.367188 0)"/>
     <use xlink:href="#DejaVuSans-73" transform="translate(610.546875 0)"/>
     <use xlink:href="#DejaVuSans-20" transform="translate(662.646484 0)"/>
     <use xlink:href="#DejaVuSans-47" transform="translate(694.433594 0)"/>
     <use xlink:href="#DejaVuSans-65" transform="translate(771.923828 0)"/>
     <use xlink:href="#DejaVuSans-6e" transform="translate(833.447266 0)"/>
     <use xlink:href="#DejaVuSans-65" transform="translate(896.826172 0)"/>
     <use xlink:href="#DejaVuSans-73" transform="translate(958.349609 0)"/>
    </g>
   </g>
  </g>
  <g id="axes_3">
   <g id="patch_12">
    <path d="M 763.565545 290.64351 
L 1076.790697 290.64351 
L 1076.790697 18.118365 
L 763.565545 18.118365 
z
" style="fill: #ffffff"/>
   </g>
   <g id="FillBetweenPolyCollection_9">
    <path d="M 777.803052 262.650158 
L 777.803052 278.256003 
L 872.719765 267.129769 
L 967.636477 247.336503 
L 1062.55319 217.262153 
L 1062.55319 215.306233 
L 1062.55319 215.306233 
L 967.636477 245.263847 
L 872.719765 266.294572 
L 777.803052 262.650158 
z
" clip-path="url(#pb6ef8d051b)" style="fill: #1f77b4; fill-opacity: 0.15"/>
   </g>
   <g id="FillBetweenPolyCollection_10">
    <path d="M 777.803052 217.318827 
L 777.803052 228.738793 
L 872.719765 209.962016 
L 967.636477 188.43446 
L 1062.55319 154.83546 
L 1062.55319 152.727305 
L 1062.55319 152.727305 
L 967.636477 180.15777 
L 872.719765 203.597118 
L 777.803052 217.318827 
z
" clip-path="url(#pb6ef8d051b)" style="fill: #ff7f0e; fill-opacity: 0.15"/>
   </g>
   <g id="FillBetweenPolyCollection_11">
    <path d="M 777.803052 169.237948 
L 777.803052 175.944641 
L 872.719765 149.025626 
L 967.636477 133.132854 
L 1062.55319 111.647213 
L 1062.55319 94.132362 
L 1062.55319 94.132362 
L 967.636477 129.337698 
L 872.719765 140.363291 
L 777.803052 169.237948 
z
" clip-path="url(#pb6ef8d051b)" style="fill: #2ca02c; fill-opacity: 0.15"/>
   </g>
   <g id="FillBetweenPolyCollection_12">
    <path d="M 777.803052 90.3353 
L 777.803052 106.033397 
L 872.719765 99.936292 
L 967.636477 58.762494 
L 1062.55319 48.468984 
L 1062.55319 30.505872 
L 1062.55319 30.505872 
L 967.636477 55.589002 
L 872.719765 95.82849 
L 777.803052 90.3353 
z
" clip-path="url(#pb6ef8d051b)" style="fill: #d62728; fill-opacity: 0.15"/>
   </g>
   <g id="matplotlib.axis_5">
    <g id="xtick_9">
     <g id="line2d_43">
      <path d="M 777.803052 290.64351 
L 777.803052 18.118365 
" clip-path="url(#pb6ef8d051b)" style="fill: none; stroke-dasharray: 2.96,1.28; stroke-dashoffset: 0; stroke: #b0b0b0; stroke-opacity: 0.25; stroke-width: 0.8"/>
     </g>
     <g id="line2d_44">
      <g>
       <use xlink:href="#mc4e8c62676" x="777.803052" y="290.64351" style="stroke: #000000; stroke-width: 0.8"/>
      </g>
     </g>
     <g id="text_24">
      <!-- 500 -->
      <g transform="translate(768.259302 305.241947) scale(0.1 -0.1)">
       <use xlink:href="#DejaVuSans-35"/>
       <use xlink:href="#DejaVuSans-30" transform="translate(63.623047 0)"/>
       <use xlink:href="#DejaVuSans-30" transform="translate(127.246094 0)"/>
      </g>
     </g>
    </g>
    <g id="xtick_10">
     <g id="line2d_45">
      <path d="M 872.719765 290.64351 
L 872.719765 18.118365 
" clip-path="url(#pb6ef8d051b)" style="fill: none; stroke-dasharray: 2.96,1.28; stroke-dashoffset: 0; stroke: #b0b0b0; stroke-opacity: 0.25; stroke-width: 0.8"/>
     </g>
     <g id="line2d_46">
      <g>
       <use xlink:href="#mc4e8c62676" x="872.719765" y="290.64351" style="stroke: #000000; stroke-width: 0.8"/>
      </g>
     </g>
     <g id="text_25">
      <!-- 1,000 -->
      <g transform="translate(858.405702 305.241947) scale(0.1 -0.1)">
       <use xlink:href="#DejaVuSans-31"/>
       <use xlink:href="#DejaVuSans-2c" transform="translate(63.623047 0)"/>
       <use xlink:href="#DejaVuSans-30" transform="translate(95.410156 0)"/>
       <use xlink:href="#DejaVuSans-30" transform="translate(159.033203 0)"/>
       <use xlink:href="#DejaVuSans-30" transform="translate(222.65625 0)"/>
      </g>
     </g>
    </g>
    <g id="xtick_11">
     <g id="line2d_47">
      <path d="M 967.636477 290.64351 
L 967.636477 18.118365 
" clip-path="url(#pb6ef8d051b)" style="fill: none; stroke-dasharray: 2.96,1.28; stroke-dashoffset: 0; stroke: #b0b0b0; stroke-opacity: 0.25; stroke-width: 0.8"/>
     </g>
     <g id="line2d_48">
      <g>
       <use xlink:href="#mc4e8c62676" x="967.636477" y="290.64351" style="stroke: #000000; stroke-width: 0.8"/>
      </g>
     </g>
     <g id="text_26">
      <!-- 2,000 -->
      <g transform="translate(953.322415 305.241947) scale(0.1 -0.1)">
       <use xlink:href="#DejaVuSans-32"/>
       <use xlink:href="#DejaVuSans-2c" transform="translate(63.623047 0)"/>
       <use xlink:href="#DejaVuSans-30" transform="translate(95.410156 0)"/>
       <use xlink:href="#DejaVuSans-30" transform="translate(159.033203 0)"/>
       <use xlink:href="#DejaVuSans-30" transform="translate(222.65625 0)"/>
      </g>
     </g>
    </g>
    <g id="xtick_12">
     <g id="line2d_49">
      <path d="M 1062.55319 290.64351 
L 1062.55319 18.118365 
" clip-path="url(#pb6ef8d051b)" style="fill: none; stroke-dasharray: 2.96,1.28; stroke-dashoffset: 0; stroke: #b0b0b0; stroke-opacity: 0.25; stroke-width: 0.8"/>
     </g>
     <g id="line2d_50">
      <g>
       <use xlink:href="#mc4e8c62676" x="1062.55319" y="290.64351" style="stroke: #000000; stroke-width: 0.8"/>
      </g>
     </g>
     <g id="text_27">
      <!-- 4,000 -->
      <g transform="translate(1048.239128 305.241947) scale(0.1 -0.1)">
       <use xlink:href="#DejaVuSans-34"/>
       <use xlink:href="#DejaVuSans-2c" transform="translate(63.623047 0)"/>
       <use xlink:href="#DejaVuSans-30" transform="translate(95.410156 0)"/>
       <use xlink:href="#DejaVuSans-30" transform="translate(159.033203 0)"/>
       <use xlink:href="#DejaVuSans-30" transform="translate(222.65625 0)"/>
      </g>
     </g>
    </g>
    <g id="text_28">
     <!-- Number of genes -->
     <g transform="translate(876.993746 318.920073) scale(0.1 -0.1)">
      <use xlink:href="#DejaVuSans-4e"/>
      <use xlink:href="#DejaVuSans-75" transform="translate(74.804688 0)"/>
      <use xlink:href="#DejaVuSans-6d" transform="translate(138.183594 0)"/>
      <use xlink:href="#DejaVuSans-62" transform="translate(235.595703 0)"/>
      <use xlink:href="#DejaVuSans-65" transform="translate(299.072266 0)"/>
      <use xlink:href="#DejaVuSans-72" transform="translate(360.595703 0)"/>
      <use xlink:href="#DejaVuSans-20" transform="translate(401.708984 0)"/>
      <use xlink:href="#DejaVuSans-6f" transform="translate(433.496094 0)"/>
      <use xlink:href="#DejaVuSans-66" transform="translate(494.677734 0)"/>
      <use xlink:href="#DejaVuSans-20" transform="translate(529.882812 0)"/>
      <use xlink:href="#DejaVuSans-67" transform="translate(561.669922 0)"/>
      <use xlink:href="#DejaVuSans-65" transform="translate(625.146484 0)"/>
      <use xlink:href="#DejaVuSans-6e" transform="translate(686.669922 0)"/>
      <use xlink:href="#DejaVuSans-65" transform="translate(750.048828 0)"/>
      <use xlink:href="#DejaVuSans-73" transform="translate(811.572266 0)"/>
     </g>
    </g>
   </g>
   <g id="matplotlib.axis_6">
    <g id="ytick_10">
     <g id="line2d_51">
      <path d="M 763.565545 264.412273 
L 1076.790697 264.412273 
" clip-path="url(#pb6ef8d051b)" style="fill: none; stroke-dasharray: 2.96,1.28; stroke-dashoffset: 0; stroke: #b0b0b0; stroke-opacity: 0.25; stroke-width: 0.8"/>
     </g>
     <g id="line2d_52">
      <g>
       <use xlink:href="#mccf570e0e8" x="763.565545" y="264.412273" style="stroke: #000000; stroke-width: 0.8"/>
      </g>
     </g>
     <g id="text_29">
      <!-- 20 -->
      <g transform="translate(743.840545 268.211491) scale(0.1 -0.1)">
       <use xlink:href="#DejaVuSans-32"/>
       <use xlink:href="#DejaVuSans-30" transform="translate(63.623047 0)"/>
      </g>
     </g>
    </g>
    <g id="ytick_11">
     <g id="line2d_53">
      <path d="M 763.565545 196.563034 
L 1076.790697 196.563034 
" clip-path="url(#pb6ef8d051b)" style="fill: none; stroke-dasharray: 2.96,1.28; stroke-dashoffset: 0; stroke: #b0b0b0; stroke-opacity: 0.25; stroke-width: 0.8"/>
     </g>
     <g id="line2d_54">
      <g>
       <use xlink:href="#mccf570e0e8" x="763.565545" y="196.563034" style="stroke: #000000; stroke-width: 0.8"/>
      </g>
     </g>
     <g id="text_30">
      <!-- 50 -->
      <g transform="translate(743.840545 200.362252) scale(0.1 -0.1)">
       <use xlink:href="#DejaVuSans-35"/>
       <use xlink:href="#DejaVuSans-30" transform="translate(63.623047 0)"/>
      </g>
     </g>
    </g>
    <g id="ytick_12">
     <g id="line2d_55">
      <path d="M 763.565545 145.237066 
L 1076.790697 145.237066 
" clip-path="url(#pb6ef8d051b)" style="fill: none; stroke-dasharray: 2.96,1.28; stroke-dashoffset: 0; stroke: #b0b0b0; stroke-opacity: 0.25; stroke-width: 0.8"/>
     </g>
     <g id="line2d_56">
      <g>
       <use xlink:href="#mccf570e0e8" x="763.565545" y="145.237066" style="stroke: #000000; stroke-width: 0.8"/>
      </g>
     </g>
     <g id="text_31">
      <!-- 100 -->
      <g transform="translate(737.478045 149.036284) scale(0.1 -0.1)">
       <use xlink:href="#DejaVuSans-31"/>
       <use xlink:href="#DejaVuSans-30" transform="translate(63.623047 0)"/>
       <use xlink:href="#DejaVuSans-30" transform="translate(127.246094 0)"/>
      </g>
     </g>
    </g>
    <g id="ytick_13">
     <g id="line2d_57">
      <path d="M 763.565545 93.911098 
L 1076.790697 93.911098 
" clip-path="url(#pb6ef8d051b)" style="fill: none; stroke-dasharray: 2.96,1.28; stroke-dashoffset: 0; stroke: #b0b0b0; stroke-opacity: 0.25; stroke-width: 0.8"/>
     </g>
     <g id="line2d_58">
      <g>
       <use xlink:href="#mccf570e0e8" x="763.565545" y="93.911098" style="stroke: #000000; stroke-width: 0.8"/>
      </g>
     </g>
     <g id="text_32">
      <!-- 200 -->
      <g transform="translate(737.478045 97.710316) scale(0.1 -0.1)">
       <use xlink:href="#DejaVuSans-32"/>
       <use xlink:href="#DejaVuSans-30" transform="translate(63.623047 0)"/>
       <use xlink:href="#DejaVuSans-30" transform="translate(127.246094 0)"/>
      </g>
     </g>
    </g>
    <g id="ytick_14">
     <g id="line2d_59">
      <path d="M 763.565545 26.061859 
L 1076.790697 26.061859 
" clip-path="url(#pb6ef8d051b)" style="fill: none; stroke-dasharray: 2.96,1.28; stroke-dashoffset: 0; stroke: #b0b0b0; stroke-opacity: 0.25; stroke-width: 0.8"/>
     </g>
     <g id="line2d_60">
      <g>
       <use xlink:href="#mccf570e0e8" x="763.565545" y="26.061859" style="stroke: #000000; stroke-width: 0.8"/>
      </g>
     </g>
     <g id="text_33">
      <!-- 500 -->
      <g transform="translate(737.478045 29.861077) scale(0.1 -0.1)">
       <use xlink:href="#DejaVuSans-35"/>
       <use xlink:href="#DejaVuSans-30" transform="translate(63.623047 0)"/>
       <use xlink:href="#DejaVuSans-30" transform="translate(127.246094 0)"/>
      </g>
     </g>
    </g>
    <g id="text_34">
     <!-- Runtime (seconds) -->
     <g transform="translate(731.398357 201.191875) rotate(-90) scale(0.1 -0.1)">
      <use xlink:href="#DejaVuSans-52"/>
      <use xlink:href="#DejaVuSans-75" transform="translate(64.982422 0)"/>
      <use xlink:href="#DejaVuSans-6e" transform="translate(128.361328 0)"/>
      <use xlink:href="#DejaVuSans-74" transform="translate(191.740234 0)"/>
      <use xlink:href="#DejaVuSans-69" transform="translate(230.949219 0)"/>
      <use xlink:href="#DejaVuSans-6d" transform="translate(258.732422 0)"/>
      <use xlink:href="#DejaVuSans-65" transform="translate(356.144531 0)"/>
      <use xlink:href="#DejaVuSans-20" transform="translate(417.667969 0)"/>
      <use xlink:href="#DejaVuSans-28" transform="translate(449.455078 0)"/>
      <use xlink:href="#DejaVuSans-73" transform="translate(488.46875 0)"/>
      <use xlink:href="#DejaVuSans-65" transform="translate(540.568359 0)"/>
      <use xlink:href="#DejaVuSans-63" transform="translate(602.091797 0)"/>
      <use xlink:href="#DejaVuSans-6f" transform="translate(657.072266 0)"/>
      <use xlink:href="#DejaVuSans-6e" transform="translate(718.253906 0)"/>
      <use xlink:href="#DejaVuSans-64" transform="translate(781.632812 0)"/>
      <use xlink:href="#DejaVuSans-73" transform="translate(845.109375 0)"/>
      <use xlink:href="#DejaVuSans-29" transform="translate(897.208984 0)"/>
     </g>
    </g>
   </g>
   <g id="line2d_61">
    <path d="M 777.803052 276.697448 
L 872.719765 267.066749 
L 967.636477 246.175455 
L 1062.55319 216.086492 
" clip-path="url(#pb6ef8d051b)" style="fill: none; stroke: #1f77b4; stroke-width: 2; stroke-linecap: square"/>
    <g clip-path="url(#pb6ef8d051b)">
     <use xlink:href="#m95dfedc856" x="777.803052" y="276.697448" style="fill: #1f77b4; stroke: #1f77b4"/>
     <use xlink:href="#m95dfedc856" x="872.719765" y="267.066749" style="fill: #1f77b4; stroke: #1f77b4"/>
     <use xlink:href="#m95dfedc856" x="967.636477" y="246.175455" style="fill: #1f77b4; stroke: #1f77b4"/>
     <use xlink:href="#m95dfedc856" x="1062.55319" y="216.086492" style="fill: #1f77b4; stroke: #1f77b4"/>
    </g>
   </g>
   <g id="line2d_62">
    <path d="M 777.803052 226.540157 
L 872.719765 205.623422 
L 967.636477 182.203694 
L 1062.55319 154.622885 
" clip-path="url(#pb6ef8d051b)" style="fill: none; stroke: #ff7f0e; stroke-width: 2; stroke-linecap: square"/>
    <g clip-path="url(#pb6ef8d051b)">
     <use xlink:href="#mb7a3de6f40" x="777.803052" y="226.540157" style="fill: #ff7f0e; stroke: #ff7f0e"/>
     <use xlink:href="#mb7a3de6f40" x="872.719765" y="205.623422" style="fill: #ff7f0e; stroke: #ff7f0e"/>
     <use xlink:href="#mb7a3de6f40" x="967.636477" y="182.203694" style="fill: #ff7f0e; stroke: #ff7f0e"/>
     <use xlink:href="#mb7a3de6f40" x="1062.55319" y="154.622885" style="fill: #ff7f0e; stroke: #ff7f0e"/>
    </g>
   </g>
   <g id="line2d_63">
    <path d="M 777.803052 170.702217 
L 872.719765 141.865032 
L 967.636477 132.211532 
L 1062.55319 101.393443 
" clip-path="url(#pb6ef8d051b)" style="fill: none; stroke: #2ca02c; stroke-width: 2; stroke-linecap: square"/>
    <g clip-path="url(#pb6ef8d051b)">
     <use xlink:href="#mef8c5ae448" x="777.803052" y="170.702217" style="fill: #2ca02c; stroke: #2ca02c"/>
     <use xlink:href="#mef8c5ae448" x="872.719765" y="141.865032" style="fill: #2ca02c; stroke: #2ca02c"/>
     <use xlink:href="#mef8c5ae448" x="967.636477" y="132.211532" style="fill: #2ca02c; stroke: #2ca02c"/>
     <use xlink:href="#mef8c5ae448" x="1062.55319" y="101.393443" style="fill: #2ca02c; stroke: #2ca02c"/>
    </g>
   </g>
   <g id="line2d_64">
    <path d="M 777.803052 96.080485 
L 872.719765 97.909283 
L 967.636477 58.443825 
L 1062.55319 39.966505 
" clip-path="url(#pb6ef8d051b)" style="fill: none; stroke: #d62728; stroke-width: 2; stroke-linecap: square"/>
    <g clip-path="url(#pb6ef8d051b)">
     <use xlink:href="#m127fbf5aec" x="777.803052" y="96.080485" style="fill: #d62728; stroke: #d62728"/>
     <use xlink:href="#m127fbf5aec" x="872.719765" y="97.909283" style="fill: #d62728; stroke: #d62728"/>
     <use xlink:href="#m127fbf5aec" x="967.636477" y="58.443825" style="fill: #d62728; stroke: #d62728"/>
     <use xlink:href="#m127fbf5aec" x="1062.55319" y="39.966505" style="fill: #d62728; stroke: #d62728"/>
    </g>
   </g>
   <g id="patch_13">
    <path d="M 763.565545 290.64351 
L 763.565545 18.118365 
" style="fill: none; stroke: #000000; stroke-width: 0.8; stroke-linejoin: miter; stroke-linecap: square"/>
   </g>
   <g id="patch_14">
    <path d="M 1076.790697 290.64351 
L 1076.790697 18.118365 
" style="fill: none; stroke: #000000; stroke-width: 0.8; stroke-linejoin: miter; stroke-linecap: square"/>
   </g>
   <g id="patch_15">
    <path d="M 763.565545 290.64351 
L 1076.790697 290.64351 
" style="fill: none; stroke: #000000; stroke-width: 0.8; stroke-linejoin: miter; stroke-linecap: square"/>
   </g>
   <g id="patch_16">
    <path d="M 763.565545 18.118365 
L 1076.790697 18.118365 
" style="fill: none; stroke: #000000; stroke-width: 0.8; stroke-linejoin: miter; stroke-linecap: square"/>
   </g>
   <g id="text_35">
    <!-- Total Time vs Genes -->
    <g transform="translate(860.127496 12.118365) scale(0.12 -0.12)">
     <defs>
      <path id="DejaVuSans-6c" d="M 603 4863 
L 1178 4863 
L 1178 0 
L 603 0 
L 603 4863 
z
" transform="scale(0.015625)"/>
     </defs>
     <use xlink:href="#DejaVuSans-54"/>
     <use xlink:href="#DejaVuSans-6f" transform="translate(44.083984 0)"/>
     <use xlink:href="#DejaVuSans-74" transform="translate(105.265625 0)"/>
     <use xlink:href="#DejaVuSans-61" transform="translate(144.474609 0)"/>
     <use xlink:href="#DejaVuSans-6c" transform="translate(205.753906 0)"/>
     <use xlink:href="#DejaVuSans-20" transform="translate(233.537109 0)"/>
     <use xlink:href="#DejaVuSans-54" transform="translate(265.324219 0)"/>
     <use xlink:href="#DejaVuSans-69" transform="translate(323.283203 0)"/>
     <use xlink:href="#DejaVuSans-6d" transform="translate(351.066406 0)"/>
     <use xlink:href="#DejaVuSans-65" transform="translate(448.478516 0)"/>
     <use xlink:href="#DejaVuSans-20" transform="translate(510.001953 0)"/>
     <use xlink:href="#DejaVuSans-76" transform="translate(541.789062 0)"/>
     <use xlink:href="#DejaVuSans-73" transform="translate(600.96875 0)"/>
     <use xlink:href="#DejaVuSans-20" transform="translate(653.068359 0)"/>
     <use xlink:href="#DejaVuSans-47" transform="translate(684.855469 0)"/>
     <use xlink:href="#DejaVuSans-65" transform="translate(762.345703 0)"/>
     <use xlink:href="#DejaVuSans-6e" transform="translate(823.869141 0)"/>
     <use xlink:href="#DejaVuSans-65" transform="translate(887.248047 0)"/>
     <use xlink:href="#DejaVuSans-73" transform="translate(948.771484 0)"/>
    </g>
   </g>
   <g id="legend_1">
    <g id="line2d_65">
     <path d="M 771.665545 29.906959 
L 780.665545 29.906959 
L 789.665545 29.906959 
" style="fill: none; stroke: #1f77b4; stroke-width: 2; stroke-linecap: square"/>
     <g>
      <use xlink:href="#m95dfedc856" x="780.665545" y="29.906959" style="fill: #1f77b4; stroke: #1f77b4"/>
     </g>
    </g>
    <g id="text_36">
     <!-- 1000 cells -->
     <g transform="translate(796.865545 33.056959) scale(0.09 -0.09)">
      <use xlink:href="#DejaVuSans-31"/>
      <use xlink:href="#DejaVuSans-30" transform="translate(63.623047 0)"/>
      <use xlink:href="#DejaVuSans-30" transform="translate(127.246094 0)"/>
      <use xlink:href="#DejaVuSans-30" transform="translate(190.869141 0)"/>
      <use xlink:href="#DejaVuSans-20" transform="translate(254.492188 0)"/>
      <use xlink:href="#DejaVuSans-63" transform="translate(286.279297 0)"/>
      <use xlink:href="#DejaVuSans-65" transform="translate(341.259766 0)"/>
      <use xlink:href="#DejaVuSans-6c" transform="translate(402.783203 0)"/>
      <use xlink:href="#DejaVuSans-6c" transform="translate(430.566406 0)"/>
      <use xlink:href="#DejaVuSans-73" transform="translate(458.349609 0)"/>
     </g>
    </g>
    <g id="line2d_66">
     <path d="M 771.665545 43.117271 
L 780.665545 43.117271 
L 789.665545 43.117271 
" style="fill: none; stroke: #ff7f0e; stroke-width: 2; stroke-linecap: square"/>
     <g>
      <use xlink:href="#mb7a3de6f40" x="780.665545" y="43.117271" style="fill: #ff7f0e; stroke: #ff7f0e"/>
     </g>
    </g>
    <g id="text_37">
     <!-- 4000 cells -->
     <g transform="translate(796.865545 46.267271) scale(0.09 -0.09)">
      <use xlink:href="#DejaVuSans-34"/>
      <use xlink:href="#DejaVuSans-30" transform="translate(63.623047 0)"/>
      <use xlink:href="#DejaVuSans-30" transform="translate(127.246094 0)"/>
      <use xlink:href="#DejaVuSans-30" transform="translate(190.869141 0)"/>
      <use xlink:href="#DejaVuSans-20" transform="translate(254.492188 0)"/>
      <use xlink:href="#DejaVuSans-63" transform="translate(286.279297 0)"/>
      <use xlink:href="#DejaVuSans-65" transform="translate(341.259766 0)"/>
      <use xlink:href="#DejaVuSans-6c" transform="translate(402.783203 0)"/>
      <use xlink:href="#DejaVuSans-6c" transform="translate(430.566406 0)"/>
      <use xlink:href="#DejaVuSans-73" transform="translate(458.349609 0)"/>
     </g>
    </g>
    <g id="line2d_67">
     <path d="M 771.665545 56.327584 
L 780.665545 56.327584 
L 789.665545 56.327584 
" style="fill: none; stroke: #2ca02c; stroke-width: 2; stroke-linecap: square"/>
     <g>
      <use xlink:href="#mef8c5ae448" x="780.665545" y="56.327584" style="fill: #2ca02c; stroke: #2ca02c"/>
     </g>
    </g>
    <g id="text_38">
     <!-- 8000 cells -->
     <g transform="translate(796.865545 59.477584) scale(0.09 -0.09)">
      <defs>
       <path id="DejaVuSans-38" d="M 2034 2216 
Q 1584 2216 1326 1975 
Q 1069 1734 1069 1313 
Q 1069 891 1326 650 
Q 1584 409 2034 409 
Q 2484 409 2743 651 
Q 3003 894 3003 1313 
Q 3003 1734 2745 1975 
Q 2488 2216 2034 2216 
z
M 1403 2484 
Q 997 2584 770 2862 
Q 544 3141 544 3541 
Q 544 4100 942 4425 
Q 1341 4750 2034 4750 
Q 2731 4750 3128 4425 
Q 3525 4100 3525 3541 
Q 3525 3141 3298 2862 
Q 3072 2584 2669 2484 
Q 3125 2378 3379 2068 
Q 3634 1759 3634 1313 
Q 3634 634 3220 271 
Q 2806 -91 2034 -91 
Q 1263 -91 848 271 
Q 434 634 434 1313 
Q 434 1759 690 2068 
Q 947 2378 1403 2484 
z
M 1172 3481 
Q 1172 3119 1398 2916 
Q 1625 2713 2034 2713 
Q 2441 2713 2670 2916 
Q 2900 3119 2900 3481 
Q 2900 3844 2670 4047 
Q 2441 4250 2034 4250 
Q 1625 4250 1398 4047 
Q 1172 3844 1172 3481 
z
" transform="scale(0.015625)"/>
      </defs>
      <use xlink:href="#DejaVuSans-38"/>
      <use xlink:href="#DejaVuSans-30" transform="translate(63.623047 0)"/>
      <use xlink:href="#DejaVuSans-30" transform="translate(127.246094 0)"/>
      <use xlink:href="#DejaVuSans-30" transform="translate(190.869141 0)"/>
      <use xlink:href="#DejaVuSans-20" transform="translate(254.492188 0)"/>
      <use xlink:href="#DejaVuSans-63" transform="translate(286.279297 0)"/>
      <use xlink:href="#DejaVuSans-65" transform="translate(341.259766 0)"/>
      <use xlink:href="#DejaVuSans-6c" transform="translate(402.783203 0)"/>
      <use xlink:href="#DejaVuSans-6c" transform="translate(430.566406 0)"/>
      <use xlink:href="#DejaVuSans-73" transform="translate(458.349609 0)"/>
     </g>
    </g>
    <g id="line2d_68">
     <path d="M 771.665545 69.537896 
L 780.665545 69.537896 
L 789.665545 69.537896 
" style="fill: none; stroke: #d62728; stroke-width: 2; stroke-linecap: square"/>
     <g>
      <use xlink:href="#m127fbf5aec" x="780.665545" y="69.537896" style="fill: #d62728; stroke: #d62728"/>
     </g>
    </g>
    <g id="text_39">
     <!-- 16000 cells -->
     <g transform="translate(796.865545 72.687896) scale(0.09 -0.09)">
      <defs>
       <path id="DejaVuSans-36" d="M 2113 2584 
Q 1688 2584 1439 2293 
Q 1191 2003 1191 1497 
Q 1191 994 1439 701 
Q 1688 409 2113 409 
Q 2538 409 2786 701 
Q 3034 994 3034 1497 
Q 3034 2003 2786 2293 
Q 2538 2584 2113 2584 
z
M 3366 4563 
L 3366 3988 
Q 3128 4100 2886 4159 
Q 2644 4219 2406 4219 
Q 1781 4219 1451 3797 
Q 1122 3375 1075 2522 
Q 1259 2794 1537 2939 
Q 1816 3084 2150 3084 
Q 2853 3084 3261 2657 
Q 3669 2231 3669 1497 
Q 3669 778 3244 343 
Q 2819 -91 2113 -91 
Q 1303 -91 875 529 
Q 447 1150 447 2328 
Q 447 3434 972 4092 
Q 1497 4750 2381 4750 
Q 2619 4750 2861 4703 
Q 3103 4656 3366 4563 
z
" transform="scale(0.015625)"/>
      </defs>
      <use xlink:href="#DejaVuSans-31"/>
      <use xlink:href="#DejaVuSans-36" transform="translate(63.623047 0)"/>
      <use xlink:href="#DejaVuSans-30" transform="translate(127.246094 0)"/>
      <use xlink:href="#DejaVuSans-30" transform="translate(190.869141 0)"/>
      <use xlink:href="#DejaVuSans-30" transform="translate(254.492188 0)"/>
      <use xlink:href="#DejaVuSans-20" transform="translate(318.115234 0)"/>
      <use xlink:href="#DejaVuSans-63" transform="translate(349.902344 0)"/>
      <use xlink:href="#DejaVuSans-65" transform="translate(404.882812 0)"/>
      <use xlink:href="#DejaVuSans-6c" transform="translate(466.40625 0)"/>
      <use xlink:href="#DejaVuSans-6c" transform="translate(494.189453 0)"/>
      <use xlink:href="#DejaVuSans-73" transform="translate(521.972656 0)"/>
     </g>
    </g>
   </g>
  </g>
 </g>
 <defs>
  <clipPath id="pc68682844d">
   <rect x="42.765865" y="18.118365" width="313.225152" height="272.525145"/>
  </clipPath>
  <clipPath id="p7bf6c608c2">
   <rect x="403.165705" y="18.118365" width="313.225152" height="272.525145"/>
  </clipPath>
  <clipPath id="pb6ef8d051b">
   <rect x="763.565545" y="18.118365" width="313.225152" height="272.525145"/>
  </clipPath>
 </defs>
</svg>
